<svg width="24" height="24" viewBox="0 0 24 24" fill="none" xmlns="http://www.w3.org/2000/svg">
<g clip-path="url(#clip0_1_5264)">
<path fill-rule="evenodd" clip-rule="evenodd" d="M16.1682 14.7533C16.6912 13.9623 17.0012 13.0173 17.0012 12.0003C17.0012 9.24325 14.7572 7.00025 12.0013 7.00025C10.9833 7.00025 10.0382 7.30925 9.24825 7.83325L7.78925 6.37425C9.08325 5.56325 10.5122 5.00025 12.0013 5.00025C16.5853 5.00025 20.6182 10.2913 21.8002 12.0003C21.1722 12.9083 19.7332 14.8253 17.8403 16.4253L16.1682 14.7533ZM13.2863 14.6993C12.8953 14.8863 12.4623 15.0003 12.0013 15.0003C10.3472 15.0003 9.00125 13.6543 9.00125 12.0003C9.00125 11.5383 9.11425 11.1063 9.30125 10.7143L13.2863 14.6993ZM14.7003 13.2853L10.7163 9.30125C11.1063 9.11325 11.5393 9.00025 12.0013 9.00025C13.6553 9.00025 15.0013 10.3463 15.0013 12.0003C15.0013 12.4613 14.8873 12.8943 14.7003 13.2853ZM12.0013 19.0003C7.41725 19.0003 3.38425 13.7093 2.20025 12.0003C2.82925 11.0923 4.26825 9.17525 6.16125 7.57425L7.83425 9.24725C7.31025 10.0373 7.00125 10.9823 7.00125 12.0003C7.00125 14.7573 9.24325 17.0003 12.0013 17.0003C13.0183 17.0003 13.9633 16.6903 14.7543 16.1673L16.2122 17.6253C14.9183 18.4383 13.4893 19.0003 12.0013 19.0003ZM23.8532 12.5243C24.0502 12.2033 24.0502 11.7973 23.8532 11.4763C23.6402 11.1303 18.5602 3.00025 12.0013 3.00025C9.93225 3.00025 8.01225 3.81025 6.34425 4.92925L3.70825 2.29325C3.31725 1.90225 2.68525 1.90225 2.29425 2.29325C1.90325 2.68425 1.90325 3.31625 2.29425 3.70725L4.74225 6.15525C2.02425 8.48225 0.27225 11.2753 0.14925 11.4763C-0.04975 11.7973 -0.04975 12.2033 0.14925 12.5243C0.36225 12.8703 5.44225 21.0003 12.0013 21.0003C14.0693 21.0003 15.9892 20.1902 17.6582 19.0712L20.2942 21.7072C20.4892 21.9022 20.7452 22.0003 21.0012 22.0003C21.2572 22.0003 21.5133 21.9022 21.7083 21.7072C22.0993 21.3162 22.0993 20.6843 21.7083 20.2933L19.2592 17.8443C21.9772 15.5173 23.7302 12.7243 23.8532 12.5243Z" fill="#00805F"/>
</g>
<defs>
<clipPath id="clip0_1_5264">
<rect width="24" height="24" fill="white"/>
</clipPath>
</defs>
</svg>
